<svg width="16" height="16" viewBox="0 0 16 16" fill="none" xmlns="http://www.w3.org/2000/svg">
<path fill-rule="evenodd" clip-rule="evenodd" d="M2 10V12.5C2 13.3284 2.67157 14 3.5 14H12.5C13.3284 14 14 13.3284 14 12.5V10H15V12.5C15 13.8807 13.8807 15 12.5 15H3.5C2.11929 15 1 13.8807 1 12.5V10H2Z" fill="#27262C"/>
<path d="M8 10.7071C7.72386 10.7071 7.5 10.4832 7.5 10.2071L7.5 2.41421L4.85355 5.06066C4.65829 5.25592 4.34171 5.25592 4.14645 5.06066C3.95118 4.8654 3.95118 4.54881 4.14645 4.35355L8 0.5L11.8536 4.35355C12.0488 4.54882 12.0488 4.8654 11.8536 5.06066C11.6583 5.25592 11.3417 5.25592 11.1464 5.06066L8.5 2.41421L8.5 10.2071C8.5 10.4832 8.27614 10.7071 8 10.7071Z" fill="#27262C"/>
</svg>
